<mxfile host="app.diagrams.net" modified="2020-04-17T02:10:30.387Z" agent="5.0 (Windows NT 6.1; Win64; x64) AppleWebKit/537.36 (KHTML, like Gecko) Chrome/79.0.3945.79 Safari/537.36" etag="FXkvroRNMtQ3CQmn7Ryc" version="12.9.14" type="github">
  <diagram name="Page-1" id="9f46799a-70d6-7492-0946-bef42562c5a5">
    <mxGraphModel dx="1422" dy="745" grid="1" gridSize="10" guides="1" tooltips="1" connect="1" arrows="1" fold="1" page="1" pageScale="1" pageWidth="1100" pageHeight="850" background="#ffffff" math="0" shadow="0">
      <root>
        <mxCell id="0" />
        <mxCell id="1" parent="0" />
        <mxCell id="k9CPRZBm4vdzibTK0ZEi-4" style="edgeStyle=orthogonalEdgeStyle;rounded=0;orthogonalLoop=1;jettySize=auto;html=1;exitX=1;exitY=0.5;exitDx=0;exitDy=0;" edge="1" parent="1" source="k9CPRZBm4vdzibTK0ZEi-2" target="k9CPRZBm4vdzibTK0ZEi-3">
          <mxGeometry relative="1" as="geometry" />
        </mxCell>
        <mxCell id="k9CPRZBm4vdzibTK0ZEi-9" style="edgeStyle=orthogonalEdgeStyle;rounded=0;orthogonalLoop=1;jettySize=auto;html=1;" edge="1" parent="1" source="k9CPRZBm4vdzibTK0ZEi-2" target="k9CPRZBm4vdzibTK0ZEi-8">
          <mxGeometry relative="1" as="geometry" />
        </mxCell>
        <mxCell id="k9CPRZBm4vdzibTK0ZEi-2" value="StartLevel" style="rounded=0;whiteSpace=wrap;html=1;" vertex="1" parent="1">
          <mxGeometry x="40" y="160" width="130" height="60" as="geometry" />
        </mxCell>
        <mxCell id="k9CPRZBm4vdzibTK0ZEi-3" value="ProjectLevel1" style="rounded=0;whiteSpace=wrap;html=1;" vertex="1" parent="1">
          <mxGeometry x="820" y="100" width="130" height="60" as="geometry" />
        </mxCell>
        <mxCell id="k9CPRZBm4vdzibTK0ZEi-7" style="edgeStyle=orthogonalEdgeStyle;rounded=0;orthogonalLoop=1;jettySize=auto;html=1;" edge="1" parent="1" source="k9CPRZBm4vdzibTK0ZEi-6">
          <mxGeometry relative="1" as="geometry">
            <mxPoint x="255" y="190" as="targetPoint" />
          </mxGeometry>
        </mxCell>
        <mxCell id="k9CPRZBm4vdzibTK0ZEi-6" value="TransLevel" style="rounded=0;whiteSpace=wrap;html=1;" vertex="1" parent="1">
          <mxGeometry x="380" y="20" width="130" height="60" as="geometry" />
        </mxCell>
        <mxCell id="k9CPRZBm4vdzibTK0ZEi-8" value="ProjectLevel2" style="rounded=0;whiteSpace=wrap;html=1;" vertex="1" parent="1">
          <mxGeometry x="820" y="190" width="130" height="60" as="geometry" />
        </mxCell>
        <mxCell id="k9CPRZBm4vdzibTK0ZEi-12" value="" style="rounded=0;whiteSpace=wrap;html=1;" vertex="1" parent="1">
          <mxGeometry x="60" y="295" width="530" height="260" as="geometry" />
        </mxCell>
        <mxCell id="k9CPRZBm4vdzibTK0ZEi-14" value="Project Image" style="rounded=0;whiteSpace=wrap;html=1;" vertex="1" parent="1">
          <mxGeometry x="80" y="360" width="490" height="180" as="geometry" />
        </mxCell>
        <mxCell id="k9CPRZBm4vdzibTK0ZEi-15" value="Project Title" style="rounded=0;whiteSpace=wrap;html=1;" vertex="1" parent="1">
          <mxGeometry x="80" y="310" width="490" height="40" as="geometry" />
        </mxCell>
        <mxCell id="k9CPRZBm4vdzibTK0ZEi-17" value="StartLevel" style="text;html=1;align=center;verticalAlign=middle;resizable=0;points=[];autosize=1;" vertex="1" parent="1">
          <mxGeometry x="269" y="273" width="70" height="20" as="geometry" />
        </mxCell>
        <mxCell id="k9CPRZBm4vdzibTK0ZEi-27" style="edgeStyle=orthogonalEdgeStyle;rounded=0;orthogonalLoop=1;jettySize=auto;html=1;" edge="1" parent="1" source="k9CPRZBm4vdzibTK0ZEi-18" target="k9CPRZBm4vdzibTK0ZEi-25">
          <mxGeometry relative="1" as="geometry" />
        </mxCell>
        <mxCell id="k9CPRZBm4vdzibTK0ZEi-18" value="Pawn&lt;br&gt;Controller&lt;br&gt;HUD" style="rounded=0;whiteSpace=wrap;html=1;" vertex="1" parent="1">
          <mxGeometry x="60" y="622" width="530" height="260" as="geometry" />
        </mxCell>
        <mxCell id="k9CPRZBm4vdzibTK0ZEi-21" value="Project Level" style="text;html=1;align=center;verticalAlign=middle;resizable=0;points=[];autosize=1;" vertex="1" parent="1">
          <mxGeometry x="264" y="600" width="80" height="20" as="geometry" />
        </mxCell>
        <mxCell id="k9CPRZBm4vdzibTK0ZEi-22" value="Login Input" style="rounded=0;whiteSpace=wrap;html=1;" vertex="1" parent="1">
          <mxGeometry x="260" y="380" width="130" height="60" as="geometry" />
        </mxCell>
        <mxCell id="k9CPRZBm4vdzibTK0ZEi-23" value="Global Setting" style="rounded=0;whiteSpace=wrap;html=1;" vertex="1" parent="1">
          <mxGeometry x="100" y="380" width="120" height="140" as="geometry" />
        </mxCell>
        <mxCell id="k9CPRZBm4vdzibTK0ZEi-24" value="Enter Project" style="rounded=0;whiteSpace=wrap;html=1;" vertex="1" parent="1">
          <mxGeometry x="260" y="470" width="130" height="60" as="geometry" />
        </mxCell>
        <mxCell id="k9CPRZBm4vdzibTK0ZEi-25" value="Dynamic Add SubUI" style="rounded=0;whiteSpace=wrap;html=1;" vertex="1" parent="1">
          <mxGeometry x="640" y="622" width="470" height="258" as="geometry" />
        </mxCell>
        <mxCell id="k9CPRZBm4vdzibTK0ZEi-26" value="BaseUI" style="text;html=1;align=center;verticalAlign=middle;resizable=0;points=[];autosize=1;" vertex="1" parent="1">
          <mxGeometry x="845" y="600" width="50" height="20" as="geometry" />
        </mxCell>
        <mxCell id="k9CPRZBm4vdzibTK0ZEi-30" style="edgeStyle=orthogonalEdgeStyle;rounded=0;orthogonalLoop=1;jettySize=auto;html=1;" edge="1" parent="1" source="k9CPRZBm4vdzibTK0ZEi-28" target="k9CPRZBm4vdzibTK0ZEi-25">
          <mxGeometry relative="1" as="geometry" />
        </mxCell>
        <mxCell id="k9CPRZBm4vdzibTK0ZEi-28" value="" style="rounded=0;whiteSpace=wrap;html=1;" vertex="1" parent="1">
          <mxGeometry x="640" y="460" width="130" height="80" as="geometry" />
        </mxCell>
        <mxCell id="k9CPRZBm4vdzibTK0ZEi-29" value="SubUI" style="text;html=1;align=center;verticalAlign=middle;resizable=0;points=[];autosize=1;" vertex="1" parent="1">
          <mxGeometry x="680" y="440" width="50" height="20" as="geometry" />
        </mxCell>
      </root>
    </mxGraphModel>
  </diagram>
</mxfile>
